<svg width="109" height="26" viewBox="0 0 109 26" fill="none" xmlns="http://www.w3.org/2000/svg">
<path d="M10.0398 10.0271C10.6598 9.09078 11.1945 8.26832 11.7449 7.45534C12.6053 6.18368 13.7694 5.7155 15.1233 6.53481C16.4108 7.31299 16.7683 8.74282 15.8446 9.79937C12.5389 13.5859 12.0707 17.9987 12.4313 22.7248C12.5484 24.2368 11.6247 25.2776 10.043 25.2491C8.48663 25.2206 7.44273 24.1736 7.74008 22.6773C9.22053 15.2024 4.32684 10.2074 0.910438 4.63681C0.160727 3.41259 -0.551024 2.10613 0.622574 0.904066C1.9322 -0.440352 3.38417 -0.275859 4.45021 1.33428C6.32607 4.17179 8.13234 7.05043 10.043 10.0271H10.0398Z" fill="#050505"/>
<circle cx="2.3725" cy="2.3725" r="2.3725" transform="matrix(-1 0 0 1 19.9285 0.091095)" fill="#571E62"/>
<path d="M35.5616 15.8863C35.5616 18.0943 35.5806 20.3023 35.5553 22.5071C35.5363 24.1173 34.7328 25.1738 33.0879 25.1359C31.5125 25.1011 30.7913 24.0255 30.7913 22.4945C30.7818 18.0279 30.7818 13.5612 30.7913 9.09143C30.7945 7.51925 31.6802 6.50698 33.1733 6.51647C34.6506 6.52596 35.5458 7.5319 35.5584 9.10408C35.5743 11.3627 35.5616 13.6245 35.5616 15.8831V15.8863Z" fill="#010101"/>
<circle cx="2.3725" cy="2.3725" r="2.3725" transform="matrix(-1 0 0 1 35.4287 0)" fill="#571E62"/>
<path d="M51.1289 10.669C51.1289 14.9016 51.1099 18.4825 51.1383 22.0634C51.151 23.7463 50.648 25.0781 48.769 25.1382C46.8457 25.1983 46.3301 23.8444 46.3301 22.1804C46.3301 15.7557 46.3396 9.32779 46.3237 2.90305C46.3206 1.55864 46.716 0.479938 48.1015 0.103501C49.582 -0.298243 50.4551 0.514735 51.1067 1.76109C53.9917 7.2906 56.902 12.8106 59.9577 18.6217C62.0835 14.6991 64.0922 10.9949 66.0978 7.28428C67.1448 5.34831 68.1856 3.40919 69.2232 1.47006C69.8463 0.305954 70.827 -0.23814 72.0891 0.103501C73.3608 0.451468 73.8859 1.45425 73.8859 2.75438C73.8796 6.91417 73.8954 11.0771 73.8796 15.2369C73.8733 16.904 73.0381 18.0586 71.3458 18.0048C69.7135 17.9542 69.046 16.7775 69.0998 15.1642C69.1472 13.766 69.1093 12.3646 69.1093 10.3685C66.7526 14.8889 64.6426 18.8937 62.5801 22.9207C61.9854 24.0784 61.435 25.2457 59.8976 25.2077C58.3887 25.173 57.8067 24.0088 57.2341 22.8542C55.3045 18.976 53.359 15.1072 51.1352 10.6722L51.1289 10.669Z" fill="#020202"/>
<circle cx="2.3725" cy="2.3725" r="2.3725" transform="matrix(-1 0 0 1 73.7754 20.5861)" fill="#571E62"/>
<path d="M102.009 19.1408C102.752 20.67 103.449 22.1548 104.194 23.6174C104.92 25.0419 106.149 25.7431 107.64 25.0165C109.018 24.3471 109.339 23.0527 108.648 21.6313C105.397 14.9306 102.145 8.22996 98.894 1.52929C98.4434 0.599694 97.7497 0.00640484 96.6507 5.95038e-05C95.568 -0.00628583 94.79 0.494996 94.3329 1.43728C92.0248 6.18993 89.6908 10.9299 87.454 15.7111C86.6079 17.5227 87.749 19.1059 89.8464 19.1281C93.892 19.1725 97.9409 19.1408 102.016 19.1408H102.009ZM96.5826 7.93173C97.7594 10.362 98.8389 12.5987 99.9443 14.883H93.1659C94.3102 12.5575 95.3703 10.3937 96.5826 7.93173Z" fill="#030303"/>
<circle cx="2.3725" cy="2.3725" r="2.3725" transform="matrix(-1 0 0 1 89.3872 20.5617)" fill="#571E62"/>
</svg>
